Simulation
nRows=20
nColumns=15
endheader
time  TH_x TH_y TH_z SC_y  SC_z  SC_x  AC_y  AC_z  AC_x  GH_y  GH_z  GH_yy  EL_x  PS_y
0.0  0.000000  0.000000  0.000000  -42.40337527510671  -0.1034132398695644  4.600434649705714  63.656743828329446  -12.492848555242979  10.347355920755488  17.330173293076335  33.076420529463014  -35.30477949738316  13.108384065881687  120.000000
0.05745  0.000000  0.000000  0.000000  -42.24465677192072  8.594420328720037  22.15449414002959  65.96501422061993  7.159376988334909  15.033464115468837  -69.55518416374932  9.986336544901272  55.173294356194006  19.526240249351424  120.000000
0.1149  0.000000  0.000000  0.000000  -53.54611106767598  8.860905616198137  11.152997539877257  60.362889196920506  15.549126995407272  13.858646722233052  35.8584693047508  11.144611199932552  -54.37400694962406  20.489315499771877  120.000000
0.17235  0.000000  0.000000  0.000000  -63.06541715117801  -0.5840906977869087  -2.558876424837008  55.58228098101061  5.624732063462029  4.068745539664047  23.042566817347524  49.393949044221124  -43.20168270547446  25.635947732012408  120.000000
0.2298  0.000000  0.000000  0.000000  -50.4324196753593  3.1089816163730624  15.636779871808862  55.25622883592804  -11.071165054014044  0.7681979238442632  9.54135581517165  44.21405009721115  -17.102521297144673  27.360041272135017  120.000000
0.28725  0.000000  0.000000  0.000000  -48.6265939569111  18.39555574735978  27.486434025740113  54.6826780112928  -7.449968137287347  8.837400411968167  -27.855387759212782  18.565972923119  19.129006833202244  25.7129771827022  120.000000
0.3447  0.000000  0.000000  0.000000  -64.50284142475587  17.34945035319532  27.677119828079512  49.96498360728466  -11.258547274302682  2.5717714156420413  33.89754474185551  23.851788803494436  -46.816399094180404  19.324708517367323  120.000000
0.40215  0.000000  0.000000  0.000000  -61.87806343270755  14.898707785464227  25.739418900746813  49.796270626063624  -10.9559922620492  -1.209883542564593  20.9357698446205  21.245112098317755  -38.31044981494835  26.18611493139526  120.000000
0.4596  0.000000  0.000000  0.000000  -40.692605556847276  7.6849612554249305  4.926251664963053  39.23882007494727  -10.351831259835093  -5.213564750607477  9.713559395262628  43.60051612305724  -2.661016222162579  29.24755289192649  120.000000
0.51705  0.000000  0.000000  0.000000  -43.71899521454894  -1.1580064847217935  1.1355024021777838  51.99534286005092  6.193730579346706  4.3257332196209655  6.386027570645584  24.95690403635772  6.984423520465868  22.575992471273178  120.000000
0.5745  0.000000  0.000000  0.000000  -55.66694131286789  -0.9073248310665579  -16.353890173156547  68.1732307375067  15.831465589716444  20.306951344772536  -9.906122588339565  31.549159792084847  5.357591870223897  18.60621608949942  120.000000
0.63195  0.000000  0.000000  0.000000  -47.848308563032376  5.8663569539937646  -0.681654047850044  46.04351812744314  -11.684440037387699  7.3798955170610245  -8.205839158374983  36.98762407647794  1.8545732381532045  21.55254943425948  120.000000
0.6894  0.000000  0.000000  0.000000  -34.47637813053625  7.934937935972007  -5.4755797238136354  45.76590683882653  -3.975211309602703  5.537243778607251  -6.264566825432752  23.000019290963934  -12.59399036173764  19.36155887419706  120.000000
0.74685  0.000000  0.000000  0.000000  -36.94310627667639  0.8606156748071567  -10.29386343493328  57.163112936643145  2.6063958948893697  21.862962119610156  -44.35037748386667  28.409535237788525  24.768675678523728  18.824095672949074  120.000000
0.8043  0.000000  0.000000  0.000000  -36.812586590340956  -0.7108713411597797  -16.345348983989375  59.165636337608824  -6.809162727167072  20.32753566525118  -22.630393722654528  41.433979638558355  10.983015780496478  22.269367462487224  120.000000
0.86175  0.000000  0.000000  0.000000  -41.114312682124435  3.0661963296697454  -11.622125876443514  48.529365762152494  2.4126337568086873  15.077777672957652  -21.95627350205236  18.164572750548185  12.148812996087182  28.697057977311488  120.000000
0.9192  0.000000  0.000000  0.000000  -60.78289336107324  2.9719536066308643  -16.324382857318977  56.249894454284295  26.122772720776997  13.5712956122389  -21.483298053906758  14.136989243219006  11.902220517344952  23.220051465944472  120.000000
0.97665  0.000000  0.000000  0.000000  -55.09019067112676  5.910213141344483  0.9219410012203577  64.54653396830341  -6.84434775868453  20.012278511299325  -15.22898801093274  51.52054595023324  4.414548073644443  26.57753351921044  120.000000
1.0341  0.000000  0.000000  0.000000  -41.49318041769865  12.406575211136518  9.910022290057814  47.040285027769784  -7.462324094244171  3.233433512943028  37.72289223344798  45.24586003415356  -51.27673859439986  28.174465917140203  120.000000
1.09155  0.000000  0.000000  0.000000  -55.03219780062658  2.0390062247479293  9.72695361496233  51.01216698566801  10.762725259814324  -1.0691896746714527  99.39584933805463  42.400168730736624  -97.92049016941677  21.37057072857548  120.000000
